<?xml version="1.0" encoding="iso-8859-1"?>
<!-- Uploaded to: SVG Repo, www.svgrepo.com, Generator: SVG Repo Mixer Tools -->
<!DOCTYPE svg PUBLIC "-//W3C//DTD SVG 1.1//EN" "http://www.w3.org/Graphics/SVG/1.1/DTD/svg11.dtd">
<svg fill="#000000" height="800px" width="800px" version="1.1" id="Capa_1" xmlns="http://www.w3.org/2000/svg" xmlns:xlink="http://www.w3.org/1999/xlink" 
	 viewBox="0 0 489.709 489.709" xml:space="preserve">
<path d="M389.722,418.534c2.762,0,5,2.238,5,5s-2.238,5-5,5H95.246c-2.762,0-5-2.238-5-5s2.238-5,5-5H389.722z M389.722,437.031
	H95.246c-2.762,0-5,2.238-5,5s2.238,5,5,5h294.476c2.762,0,5-2.238,5-5S392.483,437.031,389.722,437.031z M443.354,5v396.943v59.922
	v22.844c0,2.762-2.238,5-5,5H100.97c-25.194,0-54.615-15.139-54.615-57.805V45.153C46.354,20.256,66.61,0,91.508,0h346.847
	C441.116,0,443.354,2.238,443.354,5z M433.354,406.943h-42.208H102.733c-13.764,0-24.961,11.197-24.961,24.961
	s11.197,24.961,24.961,24.961h330.621V406.943z M433.354,479.709v-12.844H102.733c-19.277,0-34.961-15.684-34.961-34.961
	s15.684-34.961,34.961-34.961h288.413h42.208v-10.396H94.287c-5.576,0-12.191,2.512-18.629,7.072
	c-0.878,0.621-1.887,0.92-2.887,0.92c-1.566,0.001-3.109-0.733-4.084-2.109c-1.596-2.254-1.063-5.374,1.189-6.971
	c8.112-5.747,16.781-8.912,24.41-8.912h1.683v-15.384c0-2.762,2.238-5,5-5s5,2.238,5,5v15.384h327.385V10H105.97v312.765
	c0,2.762-2.238,5-5,5s-5-2.238-5-5V10h-4.462c-19.384,0-35.153,15.77-35.153,35.153v386.751c0,45.5,37.165,47.805,44.615,47.805
	H433.354z M178.288,160.521v-51.201c0-2.762,2.238-5,5-5h56.566V58.123c0-2.762,2.238-5,5-5h51.2c2.762,0,5,2.238,5,5v46.196h56.566
	c2.762,0,5,2.238,5,5v51.201c0,2.762-2.238,5-5,5h-56.566v165.675c0,2.762-2.238,5-5,5h-51.2c-2.762,0-5-2.238-5-5V165.521h-56.566
	C180.526,165.521,178.288,163.282,178.288,160.521z M188.288,155.521h56.566c2.762,0,5,2.238,5,5v165.675h41.2V160.521
	c0-2.762,2.238-5,5-5h56.566v-41.201h-56.566c-2.762,0-5-2.238-5-5V63.123h-41.2v46.196c0,2.762-2.238,5-5,5h-56.566V155.521z"/>
</svg>