<svg xmlns="http://www.w3.org/2000/svg" xmlns:xlink="http://www.w3.org/1999/xlink" version="1.1" x="0px" y="0px" viewBox="0 0 512 640" style="enable-background:new 0 0 512 512;" xml:space="preserve"><g><path d="M466.64,346.848c-0.744-3.429-3.773-5.878-7.274-5.878h-15.803l-5.095-23.637c-0.035-0.164-0.145-0.285-0.19-0.443   c-0.139-0.489-0.353-0.918-0.585-1.363c-0.227-0.442-0.443-0.867-0.747-1.248c-0.255-0.317-0.556-0.566-0.861-0.838   c-0.414-0.372-0.82-0.718-1.306-0.986c-0.337-0.187-0.698-0.296-1.067-0.43c-0.535-0.194-1.06-0.359-1.642-0.424   c-0.161-0.019-0.295-0.109-0.459-0.118c-11.537-0.626-32.508-5.179-66.758-23.329c-54.521-28.865-94.572,1.495-108.853,15.328   c-14.276-13.831-54.307-44.191-108.853-15.328c-34.25,18.15-55.22,22.703-66.758,23.329c-0.161,0.009-0.291,0.098-0.449,0.116   c-0.593,0.065-1.129,0.232-1.676,0.432c-0.356,0.132-0.705,0.235-1.033,0.416c-0.494,0.273-0.908,0.624-1.328,1.003   c-0.299,0.269-0.595,0.512-0.847,0.825c-0.306,0.382-0.523,0.811-0.751,1.254c-0.231,0.442-0.444,0.872-0.584,1.359   c-0.045,0.16-0.155,0.28-0.19,0.444l-5.095,23.637H52.635c-3.501,0-6.531,2.449-7.274,5.878L18.748,471.22   c-0.472,2.259,0.127,4.617,1.633,6.376c1.415,1.66,3.483,2.603,5.642,2.603c0.127,0,0.272,0,0.399-0.009L256,467.718   l229.579,12.473c0.127,0.009,0.272,0.009,0.399,0.009c2.159,0,4.227-0.943,5.642-2.603c1.506-1.76,2.104-4.118,1.633-6.376   L466.64,346.848z M357.887,301.288c31.822,16.856,53.509,22.766,67.213,24.499l19.133,88.755   c-15.274-0.904-46.692-4.129-72.759-15.712c-33.075-14.715-62.036-27.458-107.955-3.083v-78.813   C271.338,308.218,306.531,274.05,357.887,301.288z M256.001,425.218c-50.408-30.013-80.693-16.673-117.108-0.474   c-25.433,11.302-59.9,14.277-75.973,15.066l1.814-10.204c14.44-0.599,50.939-3.474,81.832-17.197   c34.485-15.329,59.374-26.395,105.397,2.476c0.29,0.181,0.62,0.211,0.925,0.347c0.268,0.129,0.54,0.211,0.823,0.308   c0.17,0.052,0.33,0.149,0.503,0.188c0.088,0.023,0.164,0.075,0.254,0.095c0.329,0.063,0.647,0.046,0.978,0.067   c0.22,0.019,0.409,0.128,0.634,0.128c0.217,0,0.398-0.105,0.61-0.124c0.281-0.023,0.55-0.017,0.83-0.071   c0.077-0.017,0.145-0.062,0.222-0.083c0.116-0.026,0.222-0.093,0.337-0.126c0.493-0.141,0.958-0.289,1.404-0.524   c0.179-0.092,0.379-0.099,0.552-0.206c46.005-28.862,70.912-17.823,107.048-1.741c29.551,13.134,65.796,15.891,80.182,16.463   l1.814,10.195c-16.127-0.807-50.884-3.909-77.587-15.773C336.652,408.526,306.406,395.232,256.001,425.218z M154.113,301.288   c51.896-27.503,87.254,7.628,94.531,15.838v78.707c-46.098-24.524-75.152-11.66-109.751,3.723   c-24.859,11.047-55.93,14.133-71.128,15L86.9,325.787C100.604,324.055,122.291,318.144,154.113,301.288z M153.876,458.385   c1.543-0.777,2.983-1.376,4.554-2.203c29.6-15.577,56.11-9.656,73.141-2.018L153.876,458.385z M280.392,454.161   c17.028-7.647,43.553-13.581,73.177,2.02c1.562,0.822,3.024,1.429,4.565,2.203L280.392,454.161z M414.328,461.438   c-9.907-0.684-27.294-4.425-53.829-18.408c-48.439-25.496-90.728-1.498-104.508,8.066c-13.811-9.557-56.132-33.528-104.49-8.066   c-26.535,13.983-43.922,17.725-53.829,18.408l-62.344,3.388l23.311-108.998h6.595l-13.997,64.934   c-0.012,0.059,0.009,0.115-0.002,0.173c-0.007,0.036-0.045,0.053-0.052,0.09l-4.499,25.188c-0.399,2.168,0.2,4.39,1.615,6.077   c1.415,1.687,3.501,2.658,5.696,2.658c2.177,0,53.932-0.19,92.553-17.342c34.449-15.329,59.356-26.431,105.415,2.476   c0.717,0.449,1.5,0.678,2.283,0.857c0.075,0.02,0.139,0.065,0.217,0.082c0.512,0.101,1.014,0.059,1.531,0.051   c0.517,0.008,1.018,0.05,1.533-0.051c0.065-0.014,0.12-0.052,0.185-0.069c0.798-0.178,1.594-0.415,2.324-0.87   c46.077-28.889,70.984-17.787,107.048-1.751c36.989,16.426,88.744,16.617,90.921,16.617c2.195,0,4.281-0.971,5.696-2.658   c1.415-1.687,2.014-3.909,1.615-6.077l-4.499-25.188c-0.007-0.036-0.045-0.053-0.052-0.09c-0.011-0.059,0.01-0.115-0.002-0.173   l-13.997-64.934h6.595l23.311,108.998L414.328,461.438z"/><path d="M185.986,119.691h48.308v142.141c0,4.1,3.338,7.429,7.438,7.429h28.771c4.1,0,7.438-3.329,7.438-7.429V119.691h48.145   c4.1,0,7.438-3.329,7.438-7.429V83.319c0-4.1-3.338-7.429-7.438-7.429h-48.145V39.229c0-4.1-3.338-7.429-7.438-7.429h-28.771   c-4.1,0-7.438,3.329-7.438,7.429v36.662h-48.308c-4.1,0-7.438,3.329-7.438,7.429v28.943   C178.549,116.363,181.886,119.691,185.986,119.691z M193.424,90.748h48.308c4.1,0,7.438-3.329,7.438-7.429V46.657h13.896v36.662   c0,4.1,3.338,7.429,7.438,7.429h48.145v14.086h-48.145c-4.1,0-7.438,3.329-7.438,7.429v142.141H249.17V112.263   c0-4.1-3.338-7.429-7.438-7.429h-48.308V90.748z"/></g></svg>
